<?xml version="1.0" encoding="UTF-8"?>
<svg id="Layer_2" data-name="Layer 2" xmlns="http://www.w3.org/2000/svg" viewBox="0 0 193.96 40.46">
  <defs>
    <style>
      .cls-1 {
        fill: #2b639f;
      }

      .cls-1, .cls-2, .cls-3, .cls-4, .cls-5 {
        stroke-width: 0px;
      }

      .cls-2 {
        fill: #2a619d;
      }

      .cls-3 {
        fill: #1a1a1a;
      }

      .cls-6 {
        opacity: .54;
      }

      .cls-4 {
        fill: #fff;
      }

      .cls-5 {
        fill: #eb6329;
      }
    </style>
  </defs>
  <g id="Layer_1-2" data-name="Layer 1">
    <g>
      <g>
        <g class="cls-6">
          <path class="cls-3" d="m27.7,38.8c-.05,0-.09-.02-.12-.05-.03-.03-.05-.07-.05-.12v-4.43h-1.45c-.05,0-.09-.02-.12-.05-.03-.03-.05-.07-.05-.12v-.32c0-.06.02-.1.05-.13.03-.03.07-.05.12-.05h3.63c.06,0,.1.02.13.05.03.03.05.08.05.13v.32c0,.05-.02.09-.05.12-.03.03-.08.05-.13.05h-1.44v4.43c0,.05-.02.09-.05.12-.03.03-.08.05-.13.05h-.39Z"/>
          <path class="cls-3" d="m29.9,38.8c-.05,0-.09-.02-.12-.05-.03-.03-.05-.07-.05-.12v-3.56c0-.05.02-.09.05-.13.03-.04.07-.05.12-.05h.35c.05,0,.09.02.13.05.04.04.05.08.05.13v.33c.1-.17.24-.3.41-.38.18-.09.39-.13.63-.13h.3c.05,0,.09.02.12.05.03.03.05.07.05.12v.31c0,.05-.02.09-.05.12-.03.03-.07.05-.12.05h-.45c-.27,0-.48.08-.64.24-.16.16-.23.37-.23.64v2.21c0,.05-.02.09-.05.12-.04.03-.08.05-.13.05h-.37Z"/>
          <path class="cls-3" d="m33.31,38.88c-.25,0-.48-.05-.69-.15-.21-.1-.37-.24-.5-.41-.13-.17-.19-.36-.19-.58,0-.35.14-.62.42-.83.28-.21.65-.34,1.1-.41l1.12-.16v-.22c0-.24-.07-.43-.21-.56-.14-.14-.36-.2-.67-.2-.23,0-.41.05-.55.14-.14.09-.23.21-.29.35-.03.08-.08.11-.16.11h-.34c-.06,0-.1-.02-.12-.05-.03-.03-.04-.07-.04-.12,0-.08.03-.17.09-.28.06-.11.15-.22.27-.32.12-.11.27-.19.46-.27.19-.07.42-.11.69-.11.3,0,.55.04.76.12.21.08.37.18.49.31.12.13.2.28.26.44.05.17.08.33.08.5v2.44c0,.05-.02.09-.05.12-.03.03-.07.05-.12.05h-.35c-.06,0-.1-.02-.13-.05-.03-.03-.05-.07-.05-.12v-.32c-.07.09-.15.18-.26.27-.11.09-.25.16-.41.22-.17.06-.37.09-.61.09Zm.16-.56c.21,0,.39-.04.56-.13.17-.09.31-.22.4-.41.1-.19.15-.42.15-.7v-.21l-.87.13c-.36.05-.63.13-.81.25-.18.12-.27.27-.27.45,0,.14.04.26.12.35.08.09.19.16.32.21.13.05.26.07.4.07Z"/>
          <path class="cls-3" d="m36.25,38.8c-.05,0-.09-.02-.12-.05-.03-.03-.05-.07-.05-.12v-3.57c0-.05.02-.09.05-.12.03-.03.07-.05.12-.05h.35c.05,0,.09.02.12.05.03.03.05.07.05.12v.33c.13-.17.29-.31.49-.42.2-.11.45-.16.76-.16s.6.07.83.21c.23.14.4.34.52.59.12.25.17.55.17.88v2.12c0,.05-.02.09-.05.12-.03.03-.07.05-.12.05h-.38c-.05,0-.09-.02-.12-.05-.03-.03-.05-.07-.05-.12v-2.09c0-.35-.09-.63-.26-.82-.17-.2-.42-.3-.75-.3-.31,0-.56.1-.75.3-.19.2-.28.47-.28.82v2.09c0,.05-.02.09-.05.12-.03.03-.07.05-.12.05h-.38Z"/>
          <path class="cls-3" d="m41.7,38.88c-.28,0-.52-.04-.72-.11-.2-.07-.36-.16-.49-.26-.13-.1-.22-.2-.28-.3-.06-.1-.1-.18-.1-.24,0-.06.01-.1.05-.13.04-.03.08-.05.12-.05h.33s.05,0,.07.01c.02,0,.04.03.07.06.07.07.14.14.22.21.08.07.18.13.3.17.12.05.26.07.44.07.26,0,.47-.05.63-.15.17-.1.25-.24.25-.43,0-.13-.03-.23-.1-.3s-.19-.14-.36-.2c-.17-.06-.41-.12-.71-.19-.3-.07-.54-.16-.72-.26-.18-.1-.3-.23-.38-.37s-.11-.31-.11-.49.06-.37.17-.54c.11-.17.27-.32.49-.43.21-.11.48-.17.8-.17.26,0,.48.03.67.1.19.07.34.15.46.24s.21.19.27.29c.06.1.09.18.1.24,0,.05-.01.09-.05.12-.04.03-.08.05-.12.05h-.32s-.06,0-.09-.02-.04-.03-.06-.05c-.05-.07-.11-.13-.18-.2-.07-.07-.16-.12-.26-.16-.11-.04-.25-.06-.43-.06-.25,0-.44.05-.56.16-.13.11-.19.24-.19.4,0,.1.03.18.08.26.06.08.16.14.32.2.16.06.39.13.69.2.33.07.59.15.78.26.19.11.33.24.41.38.08.15.12.31.12.5,0,.21-.06.4-.18.58-.12.18-.3.32-.54.42-.24.1-.53.15-.88.15Z"/>
          <path class="cls-3" d="m44.44,38.8c-.05,0-.09-.02-.12-.05-.03-.03-.05-.07-.05-.12v-3.14h-.64c-.05,0-.09-.02-.12-.05-.03-.03-.05-.07-.05-.12v-.26c0-.05.02-.09.05-.12.03-.03.07-.05.12-.05h.64v-.38c0-.26.04-.48.13-.67.09-.19.22-.34.41-.45.19-.11.44-.16.76-.16h.45c.05,0,.09.02.12.05.03.03.05.07.05.12v.26c0,.05-.02.09-.05.12-.03.03-.07.05-.12.05h-.44c-.24,0-.4.06-.48.18-.09.12-.13.3-.13.53v.34h.97c.05,0,.09.02.12.05.03.03.05.07.05.12v.26c0,.05-.02.09-.05.12-.03.03-.07.05-.12.05h-.97v3.14c0,.05-.02.09-.05.12-.03.03-.07.05-.12.05h-.35Z"/>
          <path class="cls-3" d="m47.95,38.88c-.52,0-.93-.16-1.24-.48-.31-.32-.47-.75-.5-1.31,0-.07,0-.15,0-.25s0-.19,0-.25c.02-.36.1-.67.25-.94.15-.27.35-.48.6-.62.25-.15.55-.22.89-.22.38,0,.7.08.96.24.26.16.46.39.59.69.14.3.2.64.2,1.04v.13c0,.06-.02.1-.05.13-.03.03-.07.05-.12.05h-2.61v.07c0,.21.06.4.14.58.08.18.2.32.35.43.15.11.33.17.54.17.18,0,.33-.03.45-.08.12-.06.22-.12.29-.18s.13-.12.15-.15c.05-.07.08-.1.11-.12.03-.01.07-.02.12-.02h.36c.05,0,.09.01.12.04.03.03.05.07.04.12,0,.08-.05.17-.12.27-.08.11-.18.21-.32.32-.14.11-.31.19-.51.26-.2.07-.43.1-.69.1Zm-1.02-2.32h2.06v-.02c0-.23-.04-.43-.12-.6-.08-.18-.2-.32-.36-.42-.16-.1-.34-.15-.56-.15s-.4.05-.55.15c-.15.1-.27.24-.35.42-.08.18-.12.38-.12.6v.02Z"/>
          <path class="cls-3" d="m50.48,38.8c-.05,0-.09-.02-.12-.05-.03-.03-.05-.07-.05-.12v-3.56c0-.05.02-.09.05-.13.03-.04.07-.05.12-.05h.35c.05,0,.09.02.13.05.04.04.05.08.05.13v.33c.1-.17.24-.3.41-.38.18-.09.39-.13.63-.13h.3c.05,0,.09.02.12.05.03.03.05.07.05.12v.31c0,.05-.02.09-.05.12-.03.03-.07.05-.12.05h-.45c-.27,0-.48.08-.64.24-.16.16-.23.37-.23.64v2.21c0,.05-.02.09-.05.12-.04.03-.08.05-.13.05h-.37Z"/>
          <path class="cls-3" d="m53.05,38.8c-.05,0-.09-.02-.12-.05-.03-.03-.05-.07-.05-.12v-3.56c0-.05.02-.09.05-.13.03-.04.07-.05.12-.05h.35c.05,0,.09.02.13.05.04.04.05.08.05.13v.33c.1-.17.24-.3.41-.38.18-.09.39-.13.63-.13h.3c.05,0,.09.02.12.05.03.03.05.07.05.12v.31c0,.05-.02.09-.05.12-.03.03-.07.05-.12.05h-.45c-.27,0-.48.08-.64.24-.16.16-.23.37-.23.64v2.21c0,.05-.02.09-.05.12-.04.03-.08.05-.13.05h-.37Z"/>
          <path class="cls-3" d="m55.55,34.16c-.05,0-.09-.02-.12-.05-.03-.03-.05-.07-.05-.12v-.41c0-.05.02-.09.05-.12.03-.03.07-.05.12-.05h.47c.05,0,.09.02.12.05.03.03.05.07.05.12v.41c0,.05-.02.09-.05.12s-.07.05-.12.05h-.47Zm.06,4.65c-.05,0-.09-.02-.12-.05-.03-.03-.05-.07-.05-.12v-3.57c0-.05.02-.09.05-.12s.07-.05.12-.05h.36c.05,0,.09.02.12.05.03.03.05.07.05.12v3.57c0,.05-.02.09-.05.12-.03.03-.07.05-.12.05h-.36Z"/>
          <path class="cls-3" d="m57.19,38.8c-.05,0-.09-.02-.12-.05-.03-.03-.05-.07-.05-.12v-3.57c0-.05.02-.09.05-.12s.07-.05.12-.05h.35c.05,0,.09.02.12.05.03.03.05.07.05.12v.33c.13-.17.29-.31.49-.42.2-.11.45-.16.76-.16s.6.07.83.21c.23.14.4.34.52.59.12.25.17.55.17.88v2.12c0,.05-.02.09-.05.12-.03.03-.07.05-.12.05h-.38c-.05,0-.09-.02-.12-.05-.03-.03-.05-.07-.05-.12v-2.09c0-.35-.09-.63-.26-.82-.17-.2-.42-.3-.75-.3-.31,0-.56.1-.75.3-.19.2-.28.47-.28.82v2.09c0,.05-.02.09-.05.12-.03.03-.07.05-.12.05h-.38Z"/>
          <path class="cls-3" d="m62.89,40.46c-.34,0-.62-.05-.84-.14-.22-.09-.39-.2-.51-.33-.12-.13-.21-.26-.26-.38-.05-.13-.08-.23-.09-.31,0-.05.01-.09.05-.13.04-.04.08-.05.12-.05h.36s.08.01.11.03c.03.02.06.06.08.13.03.08.08.16.14.25.06.09.15.17.28.24.13.07.3.1.53.1s.43-.03.59-.09c.16-.06.28-.17.37-.33s.12-.38.12-.65v-.51c-.12.16-.28.29-.47.39-.2.1-.44.15-.74.15s-.52-.05-.72-.15c-.2-.1-.37-.23-.49-.4-.13-.17-.22-.36-.29-.58-.06-.22-.1-.44-.11-.68,0-.14,0-.28,0-.41,0-.24.05-.46.11-.68.06-.22.16-.41.29-.58.13-.17.29-.31.49-.4.2-.1.44-.15.72-.15.3,0,.55.06.75.17.2.11.36.25.49.41v-.32c0-.05.02-.09.05-.13.03-.04.07-.05.12-.05h.35c.05,0,.09.02.13.05.04.04.05.08.05.13v3.65c0,.34-.06.64-.17.9-.11.26-.3.47-.56.62-.26.15-.61.23-1.04.23Zm-.02-2.23c.25,0,.45-.06.61-.17.15-.12.27-.26.34-.44.07-.18.11-.35.12-.53,0-.07,0-.16,0-.26s0-.19,0-.26c0-.18-.04-.36-.12-.53-.07-.18-.19-.32-.34-.44-.15-.12-.36-.17-.61-.17s-.45.06-.6.17c-.15.11-.26.26-.32.44-.07.18-.1.38-.11.59,0,.13,0,.26,0,.4,0,.21.05.41.11.59.07.18.17.33.32.44.15.11.35.17.6.17Z"/>
          <path class="cls-3" d="m67.29,38.8c-.06,0-.1-.02-.13-.05-.03-.03-.05-.07-.05-.12v-4.92c0-.06.02-.1.05-.13.03-.03.07-.05.13-.05h3.11c.06,0,.1.02.13.05.03.03.05.08.05.13v.29c0,.06-.02.1-.05.13s-.07.05-.13.05h-2.56v1.65h2.39c.06,0,.1.02.13.05.03.03.05.08.05.13v.28c0,.05-.02.09-.05.12-.03.03-.07.05-.13.05h-2.39v1.71h2.62c.06,0,.1.02.13.05s.05.07.05.13v.29c0,.05-.02.09-.05.12-.03.03-.07.05-.13.05h-3.17Z"/>
          <path class="cls-3" d="m71.1,38.8s-.08-.02-.11-.05c-.03-.03-.05-.07-.05-.11,0-.02,0-.03.01-.06s.02-.05.04-.08l1.31-1.71-1.23-1.62s-.03-.06-.04-.08c0-.02-.01-.04-.01-.06,0-.05.02-.08.05-.11.03-.03.07-.05.11-.05h.38c.06,0,.1.01.12.04.03.03.05.05.07.08l1,1.3,1-1.3s.04-.05.07-.08c.03-.03.07-.05.12-.05h.37s.08.02.11.05.05.07.05.11c0,.02,0,.04-.01.06,0,.02-.02.05-.04.08l-1.24,1.63,1.31,1.69s.03.06.04.08c0,.02.01.04.01.06,0,.05-.02.08-.05.11-.03.03-.07.05-.11.05h-.4c-.05,0-.09-.01-.12-.04-.03-.03-.06-.05-.08-.08l-1.06-1.38-1.06,1.38s-.04.04-.07.07-.07.04-.12.04h-.38Z"/>
          <path class="cls-3" d="m75.22,40.23c-.05,0-.09-.02-.12-.05s-.05-.07-.05-.12v-5c0-.05.02-.09.05-.12s.07-.05.12-.05h.35c.05,0,.09.02.12.05.03.03.05.07.05.12v.33c.12-.17.28-.3.48-.41.2-.11.45-.17.75-.17.28,0,.52.05.72.14.2.1.36.23.49.39.13.17.22.35.29.56.07.21.1.44.11.68,0,.08,0,.17,0,.26s0,.18,0,.26c0,.24-.04.46-.11.67-.07.21-.16.4-.29.56-.13.16-.29.29-.49.39-.2.1-.44.15-.72.15s-.54-.05-.73-.16c-.2-.11-.36-.24-.49-.4v1.75c0,.05-.02.09-.05.12-.03.03-.07.05-.13.05h-.36Zm1.6-1.97c.26,0,.47-.06.61-.17.15-.11.25-.26.32-.44.07-.18.1-.38.11-.59,0-.15,0-.29,0-.44-.01-.21-.05-.41-.11-.59-.07-.18-.17-.33-.32-.44-.15-.11-.35-.17-.61-.17-.25,0-.45.06-.6.17-.15.12-.27.26-.34.44-.07.18-.11.36-.12.55,0,.08,0,.18,0,.29s0,.21,0,.29c0,.18.05.35.12.52.08.17.19.31.35.42.16.11.35.17.59.17Z"/>
          <path class="cls-3" d="m80.79,38.88c-.52,0-.93-.16-1.24-.48-.31-.32-.47-.75-.5-1.31,0-.07,0-.15,0-.25s0-.19,0-.25c.02-.36.1-.67.25-.94.15-.27.35-.48.6-.62.25-.15.55-.22.89-.22.38,0,.7.08.96.24.26.16.46.39.59.69.14.3.2.64.2,1.04v.13c0,.06-.02.1-.05.13-.03.03-.07.05-.12.05h-2.61v.07c.01.21.06.4.14.58.08.18.2.32.35.43.15.11.33.17.54.17.18,0,.33-.03.45-.08.12-.06.22-.12.29-.18s.13-.12.15-.15c.05-.07.08-.1.11-.12.03-.01.07-.02.12-.02h.36c.05,0,.09.01.12.04.03.03.05.07.04.12,0,.08-.05.17-.12.27-.08.11-.18.21-.32.32-.14.11-.31.19-.51.26-.2.07-.43.1-.69.1Zm-1.02-2.32h2.06v-.02c0-.23-.04-.43-.12-.6-.08-.18-.2-.32-.36-.42-.16-.1-.34-.15-.56-.15s-.4.05-.55.15c-.15.1-.27.24-.35.42-.08.18-.12.38-.12.6v.02Z"/>
          <path class="cls-3" d="m83.32,38.8c-.05,0-.09-.02-.12-.05-.03-.03-.05-.07-.05-.12v-3.56c0-.05.02-.09.05-.13.03-.04.07-.05.12-.05h.35c.05,0,.09.02.13.05.04.04.05.08.05.13v.33c.1-.17.24-.3.41-.38.18-.09.39-.13.63-.13h.3c.05,0,.09.02.12.05.03.03.05.07.05.12v.31c0,.05-.02.09-.05.12-.03.03-.07.05-.12.05h-.45c-.27,0-.48.08-.64.24-.16.16-.23.37-.23.64v2.21c0,.05-.02.09-.05.12-.04.03-.08.05-.13.05h-.37Z"/>
          <path class="cls-3" d="m87.24,38.8c-.28,0-.51-.05-.69-.16-.18-.11-.3-.26-.38-.46-.08-.2-.12-.43-.12-.7v-1.99h-.59c-.05,0-.09-.02-.12-.05-.03-.03-.05-.07-.05-.12v-.26c0-.05.02-.09.05-.12s.07-.05.12-.05h.59v-1.26c0-.05.02-.09.05-.12.03-.03.07-.05.12-.05h.35c.05,0,.09.02.12.05.03.03.05.07.05.12v1.26h.93c.05,0,.09.02.12.05.03.03.05.07.05.12v.26c0,.05-.02.09-.05.12s-.07.05-.12.05h-.93v1.94c0,.24.04.42.12.56.08.14.22.2.43.2h.46c.05,0,.09.02.12.05.03.03.05.07.05.12v.27c0,.05-.02.09-.05.12-.03.03-.07.05-.12.05h-.52Z"/>
          <path class="cls-3" d="m89.71,38.88c-.28,0-.52-.04-.72-.11-.2-.07-.36-.16-.49-.26-.13-.1-.22-.2-.28-.3-.06-.1-.1-.18-.1-.24,0-.06.01-.1.05-.13.04-.03.08-.05.12-.05h.33s.05,0,.07.01c.02,0,.04.03.07.06.07.07.14.14.22.21.08.07.18.13.3.17.12.05.26.07.44.07.26,0,.47-.05.63-.15.17-.1.25-.24.25-.43,0-.13-.03-.23-.1-.3-.07-.08-.19-.14-.36-.2-.17-.06-.41-.12-.71-.19-.3-.07-.54-.16-.72-.26-.18-.1-.3-.23-.38-.37s-.11-.31-.11-.49.06-.37.17-.54c.11-.17.27-.32.49-.43.21-.11.48-.17.8-.17.26,0,.48.03.67.1.19.07.34.15.46.24.12.1.21.19.27.29.06.1.09.18.1.24,0,.05-.01.09-.05.12-.04.03-.08.05-.12.05h-.32s-.06,0-.09-.02-.04-.03-.06-.05c-.05-.07-.11-.13-.18-.2-.07-.07-.16-.12-.26-.16-.11-.04-.25-.06-.43-.06-.25,0-.44.05-.56.16-.13.11-.19.24-.19.4,0,.1.03.18.08.26.06.08.16.14.32.2.16.06.39.13.69.2.33.07.59.15.78.26.19.11.33.24.41.38.08.15.12.31.12.5,0,.21-.06.4-.18.58-.12.18-.3.32-.54.42-.24.1-.53.15-.88.15Z"/>
          <path class="cls-3" d="m93.7,38.8c-.06,0-.1-.02-.13-.05-.03-.03-.05-.07-.05-.12v-4.92c0-.06.02-.1.05-.13.03-.03.07-.05.13-.05h.38c.06,0,.1.02.13.05.03.03.05.08.05.13v1.87l2.01-1.93s.05-.05.1-.08c.05-.03.11-.05.19-.05h.41s.08.02.11.05c.03.03.05.07.05.11s-.01.07-.03.1l-2.33,2.27,2.48,2.49s.04.07.04.11-.02.08-.05.11-.07.05-.11.05h-.42c-.09,0-.15-.02-.2-.05-.05-.03-.08-.06-.1-.07l-2.15-2.12v2.07c0,.05-.02.09-.05.12s-.08.05-.13.05h-.38Z"/>
          <path class="cls-3" d="m97.83,38.8c-.05,0-.09-.02-.12-.05-.03-.03-.05-.07-.05-.12v-3.57c0-.05.02-.09.05-.12s.07-.05.12-.05h.35c.05,0,.09.02.12.05.03.03.05.07.05.12v.33c.13-.17.29-.31.49-.42.2-.11.45-.16.76-.16s.6.07.83.21c.23.14.4.34.52.59.12.25.17.55.17.88v2.12c0,.05-.02.09-.05.12-.03.03-.07.05-.12.05h-.38c-.05,0-.09-.02-.12-.05-.03-.03-.05-.07-.05-.12v-2.09c0-.35-.09-.63-.26-.82-.17-.2-.42-.3-.75-.3-.31,0-.56.1-.75.3-.19.2-.28.47-.28.82v2.09c0,.05-.02.09-.05.12-.03.03-.07.05-.12.05h-.38Z"/>
          <path class="cls-3" d="m103.53,38.88c-.38,0-.7-.07-.96-.22s-.45-.35-.59-.61c-.14-.26-.21-.55-.23-.88,0-.09,0-.19,0-.33s0-.24,0-.32c.02-.34.09-.63.23-.89.14-.26.34-.46.59-.6.26-.15.57-.22.95-.22s.69.07.95.22c.26.15.45.35.59.6.14.26.21.55.23.89,0,.08,0,.19,0,.32s0,.24,0,.33c-.02.33-.09.63-.23.88-.14.26-.33.46-.59.61s-.57.22-.96.22Zm0-.58c.31,0,.56-.1.75-.3.19-.2.29-.49.3-.87,0-.08,0-.17,0-.29s0-.21,0-.29c-.02-.38-.12-.67-.3-.87-.19-.2-.43-.3-.75-.3s-.56.1-.75.3c-.19.2-.29.49-.3.87,0,.08,0,.17,0,.29s0,.21,0,.29c0,.38.11.67.3.87.19.2.44.3.75.3Z"/>
          <path class="cls-3" d="m106.88,38.8c-.07,0-.12-.02-.15-.05-.04-.03-.07-.08-.09-.14l-1.07-3.49s-.02-.05-.02-.08c0-.05.02-.08.05-.11.03-.03.07-.05.11-.05h.33c.06,0,.1.02.13.05.03.03.05.06.06.08l.84,2.84.9-2.81s.03-.07.06-.11c.03-.04.08-.05.15-.05h.26c.07,0,.12.02.15.05.04.04.06.07.06.11l.9,2.81.84-2.84s.02-.05.05-.08c.03-.03.07-.05.13-.05h.33s.08.02.11.05c.03.03.05.07.05.11,0,.03,0,.05-.02.08l-1.07,3.49c-.02.06-.04.11-.08.14-.04.03-.09.05-.16.05h-.29c-.07,0-.12-.02-.16-.05-.04-.03-.07-.08-.09-.14l-.87-2.7-.87,2.7c-.02.06-.05.11-.09.14-.04.03-.1.05-.17.05h-.29Z"/>
          <path class="cls-3" d="m111.76,38.8c-.05,0-.09-.02-.12-.05-.03-.03-.05-.07-.05-.12v-5c0-.05.02-.09.05-.12.03-.03.07-.05.12-.05h.35c.06,0,.1.02.13.05.03.03.05.07.05.12v5c0,.05-.02.09-.05.12-.03.03-.07.05-.13.05h-.35Z"/>
          <path class="cls-3" d="m114.66,38.88c-.52,0-.93-.16-1.24-.48-.31-.32-.47-.75-.5-1.31,0-.07,0-.15,0-.25s0-.19,0-.25c.02-.36.1-.67.25-.94.15-.27.35-.48.6-.62.25-.15.55-.22.89-.22.38,0,.7.08.96.24.26.16.46.39.59.69.14.3.2.64.2,1.04v.13c0,.06-.02.1-.05.13-.03.03-.07.05-.12.05h-2.61v.07c.01.21.06.4.14.58.08.18.2.32.35.43.15.11.33.17.54.17.18,0,.33-.03.45-.08.12-.06.22-.12.29-.18s.13-.12.15-.15c.05-.07.08-.1.11-.12.03-.01.07-.02.12-.02h.36c.05,0,.09.01.12.04.03.03.05.07.04.12,0,.08-.05.17-.12.27-.08.11-.18.21-.32.32-.14.11-.31.19-.51.26-.2.07-.43.1-.69.1Zm-1.02-2.32h2.06v-.02c0-.23-.04-.43-.12-.6-.08-.18-.2-.32-.36-.42-.16-.1-.34-.15-.56-.15s-.4.05-.55.15c-.15.1-.27.24-.35.42-.08.18-.12.38-.12.6v.02Z"/>
          <path class="cls-3" d="m118.45,38.88c-.28,0-.51-.05-.72-.15-.2-.1-.37-.23-.49-.4-.13-.17-.22-.36-.29-.58-.06-.22-.1-.44-.11-.69,0-.08,0-.16,0-.23s0-.15,0-.23c0-.24.05-.46.11-.68.06-.22.16-.41.29-.58.13-.17.29-.31.49-.4.2-.1.44-.15.72-.15.3,0,.54.05.74.16.2.11.36.24.48.39v-1.73c0-.05.02-.09.05-.12.03-.03.07-.05.12-.05h.36c.05,0,.09.02.12.05.03.03.05.07.05.12v5c0,.05-.02.09-.05.12-.03.03-.07.05-.12.05h-.34c-.06,0-.1-.02-.13-.05-.03-.03-.05-.07-.05-.12v-.32c-.13.16-.29.29-.49.4-.2.11-.45.16-.75.16Zm.16-.61c.25,0,.45-.06.6-.17.15-.12.26-.26.34-.44.08-.18.12-.36.12-.55,0-.08,0-.18,0-.29s0-.21,0-.29c0-.18-.05-.35-.12-.52-.08-.17-.19-.31-.35-.42-.15-.11-.35-.17-.59-.17-.26,0-.46.06-.61.17-.15.11-.26.26-.32.44-.07.18-.1.38-.11.59,0,.15,0,.29,0,.44.01.21.05.41.11.59.07.18.17.33.32.44.15.11.35.17.61.17Z"/>
          <path class="cls-3" d="m122.8,40.46c-.34,0-.62-.05-.84-.14-.22-.09-.39-.2-.51-.33-.12-.13-.21-.26-.26-.38-.05-.13-.08-.23-.09-.31,0-.05.01-.09.05-.13.04-.04.08-.05.12-.05h.36s.08.01.11.03c.03.02.06.06.08.13.03.08.08.16.14.25.06.09.15.17.28.24.13.07.3.1.53.1s.43-.03.59-.09c.16-.06.28-.17.37-.33s.12-.38.12-.65v-.51c-.12.16-.28.29-.47.39-.2.1-.44.15-.74.15s-.52-.05-.72-.15c-.2-.1-.37-.23-.49-.4-.13-.17-.22-.36-.29-.58-.06-.22-.1-.44-.11-.68,0-.14,0-.28,0-.41,0-.24.05-.46.11-.68.06-.22.16-.41.29-.58.13-.17.29-.31.49-.4.2-.1.44-.15.72-.15.3,0,.55.06.75.17.2.11.36.25.49.41v-.32c0-.05.02-.09.05-.13.03-.04.07-.05.12-.05h.35c.05,0,.09.02.13.05.04.04.05.08.05.13v3.65c0,.34-.06.64-.17.9-.11.26-.3.47-.56.62-.26.15-.61.23-1.04.23Zm-.02-2.23c.25,0,.45-.06.61-.17.15-.12.27-.26.34-.44.07-.18.11-.35.12-.53,0-.07,0-.16,0-.26s0-.19,0-.26c0-.18-.04-.36-.12-.53-.07-.18-.19-.32-.34-.44-.15-.12-.36-.17-.61-.17s-.45.06-.6.17c-.15.11-.26.26-.32.44-.07.18-.1.38-.11.59,0,.13,0,.26,0,.4,0,.21.05.41.11.59.07.18.17.33.32.44.15.11.35.17.6.17Z"/>
          <path class="cls-3" d="m126.95,38.88c-.52,0-.93-.16-1.24-.48-.31-.32-.47-.75-.5-1.31,0-.07,0-.15,0-.25s0-.19,0-.25c.02-.36.1-.67.25-.94.15-.27.35-.48.6-.62.25-.15.55-.22.89-.22.38,0,.7.08.96.24.26.16.46.39.59.69.14.3.2.64.2,1.04v.13c0,.06-.02.1-.05.13-.03.03-.07.05-.12.05h-2.61v.07c.01.21.06.4.14.58.08.18.2.32.35.43.15.11.33.17.54.17.18,0,.33-.03.45-.08.12-.06.22-.12.29-.18s.13-.12.15-.15c.05-.07.08-.1.11-.12.03-.01.07-.02.12-.02h.36c.05,0,.09.01.12.04.03.03.05.07.04.12,0,.08-.05.17-.12.27-.08.11-.18.21-.32.32-.14.11-.31.19-.51.26-.2.07-.43.1-.69.1Zm-1.02-2.32h2.06v-.02c0-.23-.04-.43-.12-.6-.08-.18-.2-.32-.36-.42-.16-.1-.34-.15-.56-.15s-.4.05-.55.15c-.15.1-.27.24-.35.42-.08.18-.12.38-.12.6v.02Z"/>
          <path class="cls-3" d="m132.09,38.8c-.05,0-.09-.02-.12-.05-.03-.03-.05-.07-.05-.12v-4.43h-1.45c-.05,0-.09-.02-.12-.05-.03-.03-.05-.07-.05-.12v-.32c0-.06.02-.1.05-.13.03-.03.07-.05.12-.05h3.63c.06,0,.1.02.13.05.03.03.05.08.05.13v.32c0,.05-.02.09-.05.12-.03.03-.08.05-.13.05h-1.44v4.43c0,.05-.02.09-.05.12-.03.03-.08.05-.13.05h-.39Z"/>
          <path class="cls-3" d="m135.61,38.88c-.38,0-.7-.07-.96-.22s-.45-.35-.59-.61c-.14-.26-.21-.55-.23-.88,0-.09,0-.19,0-.33s0-.24,0-.32c.02-.34.09-.63.23-.89.14-.26.34-.46.59-.6.26-.15.57-.22.95-.22s.69.07.95.22c.26.15.45.35.59.6.14.26.21.55.23.89,0,.08,0,.19,0,.32s0,.24,0,.33c-.02.33-.09.63-.23.88-.14.26-.33.46-.59.61-.26.15-.57.22-.96.22Zm0-.58c.31,0,.56-.1.75-.3.19-.2.29-.49.3-.87,0-.08,0-.17,0-.29s0-.21,0-.29c-.02-.38-.12-.67-.3-.87-.19-.2-.43-.3-.75-.3s-.56.1-.75.3c-.19.2-.29.49-.3.87,0,.08,0,.17,0,.29s0,.21,0,.29c0,.38.11.67.3.87.19.2.44.3.75.3Z"/>
          <path class="cls-3" d="m141.36,38.88c-.44,0-.8-.07-1.1-.2-.3-.13-.52-.31-.68-.52-.16-.21-.24-.44-.25-.68,0-.04.02-.08.05-.11.03-.03.07-.05.12-.05h.38c.06,0,.11.02.14.05.03.03.05.07.06.11.03.12.09.24.18.36.1.12.24.22.41.29.18.08.41.12.69.12.43,0,.75-.08.95-.23.2-.15.31-.36.31-.61,0-.18-.05-.32-.16-.43-.11-.11-.27-.2-.49-.29-.22-.09-.51-.18-.86-.28-.37-.11-.67-.22-.91-.35-.24-.13-.42-.28-.54-.47-.12-.19-.18-.42-.18-.71,0-.27.07-.51.22-.73.15-.21.36-.38.63-.51.27-.13.61-.19,1-.19.31,0,.58.04.82.12.23.08.43.19.58.33.16.14.27.29.35.44.08.16.12.31.13.46,0,.04-.01.07-.04.1-.03.03-.07.05-.12.05h-.4s-.07,0-.11-.03c-.04-.02-.07-.06-.09-.11-.03-.21-.15-.38-.35-.52-.2-.14-.46-.21-.78-.21s-.59.06-.79.19c-.2.13-.31.32-.31.59,0,.17.05.31.14.43.1.11.25.21.45.3.21.09.47.18.81.27.4.11.73.23.99.35.26.12.45.28.57.46.12.18.18.42.18.7,0,.32-.08.59-.25.81-.17.22-.4.39-.7.51-.3.12-.65.18-1.06.18Z"/>
          <path class="cls-3" d="m145.48,38.8c-.28,0-.51-.05-.69-.16-.18-.11-.3-.26-.38-.46-.08-.2-.12-.43-.12-.7v-1.99h-.59c-.05,0-.09-.02-.12-.05-.03-.03-.05-.07-.05-.12v-.26c0-.05.02-.09.05-.12.03-.03.07-.05.12-.05h.59v-1.26c0-.05.02-.09.05-.12.03-.03.07-.05.12-.05h.35c.05,0,.09.02.12.05.03.03.05.07.05.12v1.26h.93c.05,0,.09.02.12.05.03.03.05.07.05.12v.26c0,.05-.02.09-.05.12-.03.03-.07.05-.12.05h-.93v1.94c0,.24.04.42.12.56.08.14.22.2.43.2h.46c.05,0,.09.02.12.05.03.03.05.07.05.12v.27c0,.05-.02.09-.05.12-.03.03-.07.05-.12.05h-.52Z"/>
          <path class="cls-3" d="m148.06,38.88c-.32,0-.59-.07-.82-.21-.22-.14-.39-.34-.51-.6-.12-.26-.17-.55-.17-.88v-2.12c0-.05.02-.09.05-.12.03-.03.07-.05.12-.05h.38c.05,0,.09.02.12.05.03.03.05.07.05.12v2.09c0,.75.33,1.12.98,1.12.31,0,.56-.1.75-.3.19-.2.28-.47.28-.82v-2.09c0-.05.02-.09.05-.12.03-.03.07-.05.12-.05h.37c.06,0,.1.02.13.05.03.03.05.07.05.12v3.57c0,.05-.02.09-.05.12-.03.03-.07.05-.13.05h-.35c-.05,0-.09-.02-.12-.05-.03-.03-.05-.07-.05-.12v-.33c-.14.18-.3.32-.49.42-.19.11-.45.16-.76.16Z"/>
          <path class="cls-3" d="m152.26,38.88c-.28,0-.51-.05-.72-.15-.2-.1-.37-.23-.49-.4-.13-.17-.22-.36-.29-.58-.06-.22-.1-.44-.11-.69,0-.08,0-.16,0-.23s0-.15,0-.23c0-.24.05-.46.11-.68.06-.22.16-.41.29-.58.13-.17.29-.31.49-.4.2-.1.44-.15.72-.15.3,0,.54.05.74.16.2.11.36.24.48.39v-1.73c0-.05.02-.09.05-.12.03-.03.07-.05.12-.05h.36c.05,0,.09.02.12.05.03.03.05.07.05.12v5c0,.05-.02.09-.05.12-.03.03-.07.05-.12.05h-.34c-.06,0-.1-.02-.13-.05-.03-.03-.05-.07-.05-.12v-.32c-.13.16-.29.29-.49.4-.2.11-.45.16-.75.16Zm.16-.61c.25,0,.45-.06.6-.17.15-.12.26-.26.34-.44.08-.18.12-.36.12-.55,0-.08,0-.18,0-.29s0-.21,0-.29c0-.18-.05-.35-.12-.52-.08-.17-.19-.31-.35-.42-.15-.11-.35-.17-.59-.17-.26,0-.46.06-.61.17-.15.11-.26.26-.32.44-.07.18-.1.38-.11.59,0,.15,0,.29,0,.44,0,.21.05.41.11.59.07.18.17.33.32.44.15.11.35.17.61.17Z"/>
          <path class="cls-3" d="m156.57,38.88c-.52,0-.93-.16-1.24-.48-.31-.32-.47-.75-.5-1.31,0-.07,0-.15,0-.25s0-.19,0-.25c.02-.36.1-.67.25-.94.15-.27.35-.48.6-.62.25-.15.55-.22.89-.22.38,0,.7.08.96.24.26.16.46.39.59.69.14.3.2.64.2,1.04v.13c0,.06-.02.1-.05.13-.03.03-.07.05-.12.05h-2.61v.07c0,.21.06.4.14.58.08.18.2.32.35.43.15.11.33.17.54.17.18,0,.33-.03.45-.08.12-.06.22-.12.29-.18.08-.07.13-.12.15-.15.05-.07.08-.1.11-.12.03-.01.07-.02.12-.02h.36c.05,0,.09.01.12.04.03.03.05.07.04.12,0,.08-.05.17-.12.27-.08.11-.18.21-.32.32-.14.11-.31.19-.51.26-.2.07-.43.1-.69.1Zm-1.02-2.32h2.06v-.02c0-.23-.04-.43-.12-.6-.08-.18-.2-.32-.36-.42-.16-.1-.34-.15-.56-.15s-.4.05-.55.15c-.15.1-.27.24-.35.42-.08.18-.12.38-.12.6v.02Z"/>
          <path class="cls-3" d="m159.1,38.8c-.05,0-.09-.02-.12-.05-.03-.03-.05-.07-.05-.12v-3.57c0-.05.02-.09.05-.12.03-.03.07-.05.12-.05h.35c.05,0,.09.02.12.05.03.03.05.07.05.12v.33c.13-.17.29-.31.49-.42.2-.11.45-.16.76-.16s.6.07.83.21c.23.14.4.34.52.59.12.25.17.55.17.88v2.12c0,.05-.02.09-.05.12-.03.03-.07.05-.12.05h-.38c-.05,0-.09-.02-.12-.05-.03-.03-.05-.07-.05-.12v-2.09c0-.35-.09-.63-.26-.82-.17-.2-.42-.3-.75-.3-.31,0-.56.1-.75.3-.19.2-.28.47-.28.82v2.09c0,.05-.02.09-.05.12-.03.03-.07.05-.12.05h-.38Z"/>
          <path class="cls-3" d="m164.66,38.8c-.28,0-.51-.05-.69-.16-.18-.11-.3-.26-.38-.46-.08-.2-.12-.43-.12-.7v-1.99h-.59c-.05,0-.09-.02-.12-.05-.03-.03-.05-.07-.05-.12v-.26c0-.05.02-.09.05-.12.03-.03.07-.05.12-.05h.59v-1.26c0-.05.02-.09.05-.12.03-.03.07-.05.12-.05h.35c.05,0,.09.02.12.05.03.03.05.07.05.12v1.26h.93c.05,0,.09.02.12.05.03.03.05.07.05.12v.26c0,.05-.02.09-.05.12-.03.03-.07.05-.12.05h-.93v1.94c0,.24.04.42.12.56.08.14.22.2.43.2h.46c.05,0,.09.02.12.05.03.03.05.07.05.12v.27c0,.05-.02.09-.05.12-.03.03-.07.05-.12.05h-.52Z"/>
          <path class="cls-3" d="m167.13,38.88c-.28,0-.52-.04-.72-.11-.2-.07-.36-.16-.49-.26-.13-.1-.22-.2-.28-.3-.06-.1-.1-.18-.1-.24,0-.06.01-.1.05-.13.04-.03.08-.05.12-.05h.33s.05,0,.07.01c.02,0,.04.03.07.06.07.07.14.14.22.21.08.07.18.13.3.17.12.05.26.07.44.07.26,0,.47-.05.63-.15s.25-.24.25-.43c0-.13-.03-.23-.1-.3-.07-.08-.19-.14-.36-.2-.17-.06-.41-.12-.71-.19-.3-.07-.54-.16-.72-.26-.18-.1-.3-.23-.38-.37-.08-.14-.11-.31-.11-.49s.06-.37.17-.54c.11-.17.27-.32.49-.43.21-.11.48-.17.8-.17.26,0,.48.03.67.1.19.07.34.15.46.24s.21.19.27.29c.06.1.09.18.1.24,0,.05-.01.09-.05.12-.04.03-.08.05-.12.05h-.32s-.06,0-.09-.02c-.02-.02-.04-.03-.06-.05-.05-.07-.11-.13-.18-.2-.07-.07-.16-.12-.26-.16-.11-.04-.25-.06-.43-.06-.25,0-.44.05-.56.16-.13.11-.19.24-.19.4,0,.1.03.18.08.26.06.08.16.14.32.2.16.06.39.13.69.2.33.07.59.15.78.26.19.11.33.24.41.38.08.15.12.31.12.5,0,.21-.06.4-.18.58-.12.18-.3.32-.54.42-.24.1-.53.15-.88.15Z"/>
        </g>
        <g>
          <g>
            <path class="cls-2" d="m176.45,32.84c1.91-7.04,5.69-7.96,7.26-10.36,2.26-3.47,1.59-6.55,1.59-6.55-.69,5.44-4.41,6.28-7.82,10.73-.83,1.08-1.41,2.52-1.8,4.13-.39-1.61-.96-3.05-1.8-4.13-3.41-4.44-7.13-5.29-7.82-10.73,0,0-.67,3.08,1.59,6.55,1.56,2.4,5.35,3.35,7.26,10.36"/>
            <path class="cls-2" d="m184.27,15.1c-.61,4.86-3.94,5.61-6.98,9.58-.74.97-1.26,2.25-1.61,3.69-.35-1.44-.86-2.72-1.61-3.69-3.05-3.97-6.37-4.73-6.98-9.58,0,0-.6,2.75,1.42,5.85,1.91,2.93,6.26,3.38,7.17,18.72.91-15.34,5.26-15.79,7.17-18.72,2.02-3.1,1.42-5.85,1.42-5.85Z"/>
            <path class="cls-2" d="m171.34,15.72c-.08.05-.13.13-.13.23,0,.11.07.21.17.25l-.36,1.01h.92l-.36-1.01c.1-.04.17-.14.17-.25,0-.1-.05-.18-.13-.23v-1.32l1.73-.7-1.46.82,1.24.55v.75c-.4.55-.64,1.23-.64,1.96,0,1.84,1.49,3.32,3.32,3.32s3.32-1.49,3.32-3.32c0-.74-.24-1.42-.65-1.97v-.74l2.91-1.38-5.48-2.68-5.99,2.65,1.4.62v1.45Z"/>
          </g>
          <path class="cls-5" d="m24.04,36.47c-4.21-9.63-16.91-8.59-16.91-8.59L14.63,0c10.6,1.29,13.21,7.3,14.31,10.17-1.56-3.03-4.41-5.28-11.14-6.64l-5.9,21.92s11.11,2.29,12.14,11.02Z"/>
          <path class="cls-2" d="m13.35,1.19l-.56,2.07-1.17-.28-7.43,27.61s14.82-.62,19.24,7.91c0,0-3.31-5.33-23.44-5.66L8.8.12l4.55,1.07Z"/>
          <g>
            <path class="cls-5" d="m25.06,29.13v-13.42c0-.27-.13-.4-.4-.4h-3.51c-.35,0-.61-.4-.61-1.76s.27-1.65.61-1.65h11.77c.32,0,.61.32.61,1.65s-.29,1.76-.61,1.76h-3.51c-.27,0-.4.13-.4.4v13.42c0,.32-.35.61-1.97.61s-1.97-.29-1.97-.61Z"/>
            <path class="cls-5" d="m32.12,23.3c0-5.25,3.43-7.4,6.84-7.4,3.62,0,5.4,1.7,5.4,3.91,0,3.57-4.63,5.01-7.8,5.09.59,1.62,2.08,2.13,3.59,2.13,2.05,0,3.19-1.2,3.62-1.2.19,0,.37.11.37.37,0,.43-.19,1.38-.51,2.18-.21.56-1.89,1.62-4.21,1.62-4.21,0-7.32-2.18-7.32-6.71Zm4.21-.43c2.13-.21,4.07-1.36,4.07-3.3,0-.75-.59-1.28-1.3-1.28-1.33,0-2.66,1.22-2.77,4.58Z"/>
            <path class="cls-5" d="m45.72,29.11V11.22c0-.35.35-.64,1.97-.64s1.97.29,1.97.64v9.8c1.76-.59,3.38-2.53,4.21-4.37.13-.29.24-.48.56-.48h2.69c.29,0,.45.13.45.37,0,.19-.08.43-.24.77-.77,1.62-2.21,3.86-3.91,5.03,1.04.59,1.76,1.76,2.96,3.89.48.85.83,1.06,1.57,1.06h.56c.21,0,.35.11.35.35,0,.59-1.76,2.37-3.04,2.37-1.04,0-1.73-.45-2.18-1.22-1.7-2.98-2.48-4.39-3.04-4.63-.21.05-.91.29-.93.32v4.63c0,.32-.37.64-1.97.64s-1.97-.32-1.97-.64Z"/>
            <path class="cls-5" d="m58.96,27.67c0-.59,1.36-2.13,1.81-2.13.51,0,1.94,1.73,3.89,1.73.96,0,1.44-.51,1.44-1.28,0-1.01-1.36-1.38-2.85-1.92-1.81-.67-3.81-1.54-3.81-3.78,0-2.66,2.32-4.39,5.67-4.39,2.98,0,4.42,1.22,4.42,1.84s-1.28,2.13-1.81,2.13c-.37,0-1.33-1.38-2.96-1.38-.88,0-1.46.53-1.46,1.25,0,.93,1.04,1.28,2.29,1.7,1.94.64,4.42,1.38,4.42,4.07s-2.29,4.5-5.46,4.5-5.59-1.78-5.59-2.34Z"/>
          </g>
          <g>
            <path class="cls-2" d="m83.83,28.66c-.99.69-2.29,1.36-4.07,1.36-2.56,0-4.45-1.41-4.45-3.91,0-3.09,2.1-4.18,5.96-5.09,1.28-.29,1.92-.53,1.92-.93,0-.77-.69-1.3-2.18-1.3-2.08,0-3.73,1.22-4.15,1.22-.24,0-.35-.13-.35-.4,0-.43.19-1.33.56-2.21.27-.59,2.18-1.49,4.5-1.49,4.07,0,5.62,1.78,5.62,5.35v4.85c0,.83.4,1.14,1.04,1.14h.53c.27,0,.37.13.37.35,0,.64-1.46,2.42-2.74,2.42-1.57,0-2.56-1.36-2.56-1.36Zm-2.58-1.33c1.17,0,2-.72,2-1.22v-2.85c0-.16-.08-.29-.29-.29-.35,0-.88.13-1.46.4-1.12.4-2.34,1.01-2.34,2.24,0,1.14.88,1.73,2.1,1.73Z"/>
            <path class="cls-2" d="m89.18,23.28c0-4.98,3.41-7.37,7.37-7.37,2.66,0,4.02.93,4.02,1.49,0,.61-1.14,2.29-1.68,2.29-.37,0-1.09-.85-2.58-.85-1.28,0-2.88.96-2.88,4.13,0,2.85,1.6,4.07,3.7,4.07s3.19-1.12,3.65-1.12c.16,0,.35.11.35.37,0,.51-.19,1.41-.56,2.18-.29.59-2.02,1.54-4.15,1.54-3.81,0-7.24-2-7.24-6.74Z"/>
            <path class="cls-2" d="m110.32,28.66c-.99.69-2.29,1.36-4.07,1.36-2.56,0-4.45-1.41-4.45-3.91,0-3.09,2.1-4.18,5.96-5.09,1.28-.29,1.92-.53,1.92-.93,0-.77-.69-1.3-2.18-1.3-2.08,0-3.73,1.22-4.15,1.22-.24,0-.35-.13-.35-.4,0-.43.19-1.33.56-2.21.27-.59,2.18-1.49,4.5-1.49,4.07,0,5.62,1.78,5.62,5.35v4.85c0,.83.4,1.14,1.04,1.14h.53c.27,0,.37.13.37.35,0,.64-1.46,2.42-2.74,2.42-1.57,0-2.56-1.36-2.56-1.36Zm-2.58-1.33c1.17,0,2-.72,2-1.22v-2.85c0-.16-.08-.29-.29-.29-.35,0-.88.13-1.46.4-1.12.4-2.34,1.01-2.34,2.24,0,1.14.88,1.73,2.1,1.73Z"/>
            <path class="cls-2" d="m115.67,23.76c0-6.12,4.29-7.85,6.76-7.85,1.25,0,2.21.48,2.21.48v-5.17c0-.35.35-.64,1.97-.64s1.97.29,1.97.64v14.88c0,.83.4,1.14,1.01,1.14h.53c.29,0,.4.13.4.35,0,.64-1.52,2.42-2.77,2.42-1.6,0-2.58-1.36-2.58-1.36,0,0-1.41,1.36-3.73,1.36-2.85,0-5.78-1.89-5.78-6.26Zm8.95-4.13c0-.51-.59-1.01-1.44-1.01-1.52,0-3.27,1.12-3.27,4.85,0,2.88,1.44,3.86,2.74,3.86,1.12,0,1.97-.83,1.97-1.49v-6.2Z"/>
            <path class="cls-2" d="m130.58,23.3c0-5.25,3.43-7.4,6.84-7.4,3.62,0,5.4,1.7,5.4,3.91,0,3.57-4.63,5.01-7.8,5.09.59,1.62,2.08,2.13,3.59,2.13,2.05,0,3.19-1.2,3.62-1.2.19,0,.37.11.37.37,0,.43-.19,1.38-.51,2.18-.21.56-1.89,1.62-4.21,1.62-4.21,0-7.32-2.18-7.32-6.71Zm4.21-.43c2.13-.21,4.07-1.36,4.07-3.3,0-.75-.59-1.28-1.3-1.28-1.33,0-2.66,1.22-2.77,4.58Z"/>
            <path class="cls-2" d="m160.46,26.85v-6.31c0-1.06-.64-1.62-1.65-1.62-1.12,0-2.4,1.06-2.4,1.68v8.52c0,.32-.35.64-1.97.64s-1.97-.32-1.97-.64v-8.52c0-1.14-.8-1.68-1.73-1.68-1.12,0-2.32.93-2.32,1.7v8.49c0,.32-.35.64-1.97.64s-1.97-.32-1.97-.64v-9.32c0-1.14-.75-1.54-.75-1.97,0-.61,2.21-1.92,3.04-1.92s1.06.59,1.54,1.6c.53-.4,1.97-1.6,4.07-1.6,1.54,0,2.5.69,3.25,1.81,1.12-1.04,3.17-1.81,4.74-1.81,2.08,0,4.02,1.2,4.02,3.35v6.84c0,.83.4,1.14,1.01,1.14h.56c.29,0,.37.13.37.35,0,.61-1.46,2.42-2.77,2.42-1.97,0-3.12-1.2-3.12-3.17Z"/>
          </g>
        </g>
      </g>
      <g>
        <circle id="Oval" class="cls-1" cx="188.41" cy="6.06" r="5.55"/>
        <circle id="Oval-2" data-name="Oval" class="cls-4" cx="188.41" cy="6.06" r="4.4"/>
        <path id="Shape" class="cls-1" d="m190.94,8.46l-1.08-2c.19-.09.36-.21.5-.36.37-.37.57-.89.53-1.42-.09-.96-.9-1.69-1.87-1.68h-2.34c-.11,0-.19.09-.19.19v5.35c0,.11.09.19.19.19h.96c.11,0,.19-.09.19-.19v-1.91h.67l1,2c.03.06.1.11.17.11h1.09c.07,0,.13-.03.17-.09s.04-.13,0-.19h0Zm-1.86-2.97h-1.24v-1.34h1.24c.37,0,.67.3.67.67s-.3.67-.67.67Z"/>
      </g>
    </g>
  </g>
</svg>